<svg width="20" height="20" viewBox="0 0 20 20" fill="none" xmlns="http://www.w3.org/2000/svg">
<path d="M14.14 0.959982L5.11 3.95998C-0.960005 5.98998 -0.960005 9.29998 5.11 11.32L7.79 12.21L8.68 14.89C10.7 20.96 14.02 20.96 16.04 14.89L19.05 5.86998C20.39 1.81998 18.19 -0.390018 14.14 0.959982ZM14.46 6.33998L10.66 10.16C10.51 10.31 10.32 10.38 10.13 10.38C9.94 10.38 9.75 10.31 9.6 10.16C9.46052 10.0188 9.38229 9.82841 9.38229 9.62998C9.38229 9.43155 9.46052 9.24112 9.6 9.09998L13.4 5.27998C13.69 4.98998 14.17 4.98998 14.46 5.27998C14.75 5.56998 14.75 6.04998 14.46 6.33998Z" fill="#FF007A"/>
</svg>
